<?xml version="1.0" encoding="UTF-8"?>
<!DOCTYPE svg PUBLIC "-//W3C//DTD SVG 1.1//EN" "http://www.w3.org/Graphics/SVG/1.1/DTD/svg11.dtd">
<!-- Creator: CorelDRAW 2019 (64-Bit) -->
<svg xmlns="http://www.w3.org/2000/svg" xml:space="preserve" width="510px" height="485px" version="1.1" style="shape-rendering:geometricPrecision; text-rendering:geometricPrecision; image-rendering:optimizeQuality; fill-rule:evenodd; clip-rule:evenodd"
viewBox="0 0 23.63 22.48"
 xmlns:xlink="http://www.w3.org/1999/xlink">
 <defs>
  <style type="text/css">
   <![CDATA[
    .str0 {stroke:#3300CC;stroke-width:0.19;stroke-miterlimit:22.9256}
    .fil1 {fill:none}
    .fil0 {fill:#444CF7}
   ]]>
  </style>
 </defs>
 <g id="Layer_x0020_1">
  <metadata id="CorelCorpID_0Corel-Layer"/>
  <path class="fil0" d="M2.23 16c1.98,1.77 3.86,3.14 5.63,4.11 1.78,0.97 3.66,2.34 6.19,0.86 2.34,-0.4 4.51,-1.77 6.51,-4.11 1.99,-2.35 4.16,-3.72 1.16,-8.21 -1.21,-3.13 -3.38,-5.44 -6.5,-6.93 -3.13,-1.49 -5.3,-3.79 -7.3,2.09 -1.73,2.88 -3.61,5.19 -5.63,6.92 -2.03,1.74 -3.91,4.05 -0.06,5.27z"/>
  <path class="fil1 str0" d="M2.57 16.76c1.98,1.78 3.86,3.15 5.64,4.11 1.77,0.97 3.65,2.34 6.18,0.86 2.35,-0.39 4.52,-1.76 6.51,-4.11 1.99,-2.35 4.16,-3.72 1.17,-8.21 -1.22,-3.13 -3.39,-5.43 -6.51,-6.92 -3.13,-1.49 -5.3,-3.8 -7.3,2.08 -1.73,2.88 -3.61,5.19 -5.63,6.93 -2.02,1.73 -3.9,4.04 -0.06,5.26z"/>
 </g>
</svg>
