<?xml version="1.0" encoding="UTF-8"?>
<!DOCTYPE svg PUBLIC "-//W3C//DTD SVG 1.1//EN" "http://www.w3.org/Graphics/SVG/1.1/DTD/svg11.dtd">
<!-- Creator: CorelDRAW 2019 (64-Bit) -->
<svg fill="currentColor" class="weblogo" xmlns="http://www.w3.org/2000/svg" xml:space="preserve" width="228px" height="72px" version="1.1"
viewBox="0 0 9.34 2.94" style="fill:white">
 <defs>
  <style type="text/css">
   <!-- <![CDATA[
    .fil0 {fill:currentcolor}
    .fil1 {fill:red}
   ]]>
    -->

 
  </style>
 </defs>
 <g id="Layer_x0020_1">
  <metadata id="CorelCorpID_0Corel-Layer"/>
  <g id="_2378249050672">
   <path class="fil0" d="M2 0l-0.57 0.84 -0.57 -0.84 -0.86 0 0.16 0.24 0.58 0 0.69 1.03 0.69 -1.03 0.29 0 -0.86 1.28 0 0.86 0.24 0 0 -0.79 1.07 -1.59 -0.86 0zm-0.69 1.52l-0.7 -1.04 -0.29 0 0.75 1.11 0 1.27 0.72 0 0 -0.24 -0.48 0 0 -1.1z" data-paper-data="{&quot;isPathIcon&quot;:true}"/>
   <path class="fil0" d="M2 0l-0.57 0.84 -0.57 -0.84 -0.86 0 0.16 0.24 0.58 0 0.69 1.03 0.69 -1.03 0.29 0 -0.86 1.28 0 0.86 0.24 0 0 -0.79 1.07 -1.59 -0.86 0zm-0.69 1.52l-0.7 -1.04 -0.29 0 0.75 1.11 0 1.27 0.72 0 0 -0.24 -0.48 0 0 -1.1z" data-paper-data="{&quot;isPathIcon&quot;:true}"/>
   <path class="fil0 " d="M4.11 1.65c0.27,-0.04 0.43,-0.25 0.43,-0.51 0,-0.32 -0.25,-0.51 -0.6,-0.51l-0.45 0 0 1c0,0.26 -0.12,0.41 -0.36,0.41 -0.23,0 -0.36,-0.15 -0.36,-0.41l0 -1 -0.21 0 0 1c0,0.37 0.22,0.6 0.57,0.6 0.36,0 0.57,-0.22 0.57,-0.6l0 -0.8 0.19 0c0.29,0 0.44,0.1 0.44,0.32 0,0.23 -0.17,0.36 -0.48,0.36l-0.06 0.09 0.57 0.59 0.29 0 -0.54 -0.54zm1.62 -1.02l-1.1 0 0 0.2 0.44 0 0 1.36 0.21 0 0 -1.36 0.45 0 0 -0.2zm0.39 1.36l0 -1.36 -0.21 0 0 1.56 0.87 0 0 -0.2 -0.66 0zm3.02 -1.36l-0.53 1.21 -0.01 0 -0.53 -1.21 -0.2 0 0 1c0,0.26 -0.12,0.41 -0.36,0.41 -0.24,0 -0.36,-0.15 -0.36,-0.41l0 -1 -0.21 0 0 1c0,0.37 0.22,0.6 0.57,0.6 0.36,0 0.57,-0.22 0.57,-0.6l0 -0.47 0 0 0.45 1.02 0.15 0 0.45 -1.02 0 0 0 1.03 0.21 0 0 -1.56 -0.2 0z" data-paper-data="{&quot;glyphName&quot;:&quot;Y&quot;,&quot;glyphIndex&quot;:0,&quot;firstGlyphOfWord&quot;:true,&quot;word&quot;:1}"/>
   <path class="fil1" d="M3.89 2.9c0,0.01 -0.01,0.01 -0.01,0.01 -0.01,0.01 -0.02,0.01 -0.02,0.01 -0.01,0 -0.02,-0.01 -0.03,-0.02 -0.01,-0.01 -0.02,-0.04 -0.04,-0.09 -0.02,-0.04 -0.03,-0.07 -0.03,-0.08l-0.06 0.11c-0.04,0.07 -0.06,0.1 -0.07,0.1 -0.01,0 -0.02,0 -0.03,-0.01 0,0 -0.01,-0.01 -0.01,-0.02 -0.01,-0.01 -0.01,-0.04 -0.02,-0.08 -0.01,-0.04 -0.02,-0.08 -0.03,-0.12 -0.01,-0.04 -0.01,-0.07 -0.01,-0.08 0,-0.01 -0.01,-0.01 -0.01,-0.01 0,-0.02 0,-0.03 0,-0.03 0,-0.01 0,-0.02 0.01,-0.03 0,0 0.01,-0.01 0.02,-0.01 0.01,0 0.03,0.02 0.03,0.04 0.01,0.03 0.01,0.05 0.01,0.06l0.01 0.04c0,0.01 0,0.03 0.01,0.05 0,0.01 0,0.03 0.01,0.04 0,0.04 0.01,0.06 0.01,0.07 0.03,-0.05 0.05,-0.09 0.06,-0.11 0.01,-0.01 0.03,-0.04 0.05,-0.09 0,0 0,-0.01 0.01,-0.01 0,0 0.01,0 0.02,0 0,0 0.01,0 0.01,0.01 0.01,0 0.02,0.02 0.03,0.05 0,0.01 0,0.01 0,0.01l0.02 0.06c0.02,0.04 0.03,0.07 0.03,0.07 0.05,-0.09 0.08,-0.18 0.09,-0.28 0,-0.01 0,-0.01 0.01,-0.02 0,0 0.01,0 0.02,0 0.01,0 0.02,0 0.02,0.01 0,0 0.01,0.01 0.01,0.02 0,0.02 -0.01,0.04 -0.02,0.08 -0.01,0.04 -0.02,0.07 -0.04,0.12l0 0.01c-0.01,0.01 -0.02,0.04 -0.05,0.09 0,0.02 -0.01,0.03 -0.01,0.03zm0.66 -0.3l-0.08 0c-0.03,0 -0.05,0.01 -0.07,0.01 -0.02,0 -0.03,0.01 -0.03,0.01 0,0 -0.01,0 -0.01,0.01 0,0.01 0,0.03 -0.01,0.05 0,0.01 0,0.03 0,0.04 0.01,0 0.02,0 0.04,-0.01 0.02,0 0.04,0 0.05,0 0.02,-0.01 0.04,-0.01 0.05,-0.01 0.03,0 0.04,0.01 0.04,0.02 0,0.01 0,0.02 -0.01,0.03 -0.01,0 -0.02,0 -0.03,0.01 -0.01,0 -0.02,0 -0.04,0 0,0 -0.01,0 -0.02,0 -0.05,0.01 -0.07,0.01 -0.08,0.02l0 0c-0.01,0 -0.01,0 -0.01,0 0,0.01 0,0.02 -0.01,0.04 0,0.02 0,0.04 0,0.05 0,0 0,0.01 0.01,0.01 0.01,0 0.03,-0.01 0.06,-0.01 0.04,-0.01 0.06,-0.01 0.07,-0.01 0.02,0 0.04,-0.01 0.04,-0.01 0.02,0.01 0.03,0.02 0.03,0.03 0,0.01 0,0.02 0,0.02 -0.02,0.01 -0.04,0.01 -0.07,0.01 -0.03,0.01 -0.05,0.01 -0.09,0.01 -0.03,0.01 -0.05,0.01 -0.08,0.01 -0.01,0 -0.02,0 -0.03,-0.01 -0.01,0 -0.01,-0.01 -0.01,-0.02l0 -0.01c0,0 0,-0.01 0,-0.02 0.01,-0.02 0.02,-0.06 0.03,-0.14 0.01,-0.07 0.01,-0.11 0.01,-0.12 0,0 0,0 0,0 0,0 0,0 -0.01,-0.01 0,0 0,-0.01 0,-0.01 0,-0.01 0,-0.01 0,-0.01 0,-0.01 0.01,-0.01 0.01,-0.01 0.01,-0.01 0.01,-0.01 0.02,-0.01 0.01,0 0.02,0 0.02,0 0.02,0 0.06,0 0.14,-0.01 0.03,-0.01 0.04,-0.01 0.04,-0.01l0.01 0c0.03,0 0.04,0.01 0.04,0.03 0,0.01 0,0.01 -0.01,0.02 0,0 -0.01,0.01 -0.01,0.01zm0.52 0.11c0.03,0.01 0.05,0.02 0.06,0.04 0.01,0.01 0.02,0.03 0.02,0.04 0,0.04 -0.02,0.07 -0.07,0.1 -0.04,0.04 -0.08,0.05 -0.13,0.05 -0.02,0 -0.03,0 -0.03,-0.02 0,-0.02 0.01,-0.04 0.05,-0.04l0.01 0c0.02,0 0.04,-0.01 0.06,-0.03 0.03,-0.02 0.04,-0.03 0.04,-0.05 0,-0.02 0,-0.03 -0.01,-0.04 -0.01,-0.01 -0.03,-0.01 -0.05,-0.01 0,0 0,0 -0.02,0.01 -0.01,0 -0.02,0 -0.02,0 -0.02,0 -0.03,0 -0.03,0 -0.01,0 -0.01,-0.01 -0.01,-0.02 0,-0.01 0.02,-0.02 0.05,-0.04 0.02,-0.01 0.04,-0.02 0.06,-0.04 0.02,-0.02 0.03,-0.03 0.03,-0.05 0,-0.01 -0.01,-0.02 -0.04,-0.02 -0.02,0 -0.04,0 -0.06,0.01 -0.03,0 -0.04,0.01 -0.04,0.02 0,0 -0.01,0.04 -0.02,0.11 -0.01,0.07 -0.02,0.11 -0.02,0.12l0 0.04c0,0.01 0,0.03 -0.01,0.03 -0.01,0.01 -0.01,0.01 -0.02,0.01 -0.02,0 -0.04,-0.02 -0.04,-0.05 0,0 0.01,-0.01 0.01,-0.02 0.01,-0.03 0.01,-0.07 0.02,-0.13 0.01,-0.05 0.01,-0.08 0.01,-0.09 0,-0.01 0,-0.01 0,-0.01l-0.01 0c-0.01,0 -0.01,0 -0.02,0 0,-0.01 0,-0.01 0,-0.01 0,-0.01 0,-0.01 0,-0.01 0,-0.02 0.02,-0.04 0.07,-0.05 0.04,-0.02 0.09,-0.02 0.14,-0.02 0.03,0 0.05,0 0.07,0.02 0.02,0.01 0.03,0.03 0.03,0.05 0,0.01 -0.01,0.03 -0.02,0.04 -0.01,0.02 -0.03,0.03 -0.06,0.06zm0.75 -0.1c0,0 0,0.01 0,0.01 0,0.01 -0.01,0.04 -0.01,0.09 -0.01,0.05 -0.01,0.09 -0.01,0.13 0,0.01 0,0.02 0,0.04 0.01,0 0.01,0 0.01,0.01 0,0.01 -0.01,0.01 -0.01,0.02 -0.01,0.01 -0.01,0.01 -0.02,0.01 -0.01,0 -0.01,0 -0.02,-0.01 -0.01,0 -0.02,-0.01 -0.02,-0.02 0,-0.02 0,-0.03 0,-0.06 0,-0.02 0,-0.07 0.01,-0.12 0.01,-0.06 0.01,-0.09 0.01,-0.09 0,0 -0.02,0 -0.06,0 -0.03,0 -0.05,0.01 -0.05,0.01 -0.02,0 -0.03,-0.01 -0.04,-0.01 -0.01,-0.01 -0.01,-0.01 -0.01,-0.02 0,-0.01 0,-0.02 0.01,-0.02 0.01,-0.01 0.03,-0.01 0.06,-0.01 0.04,0 0.09,0 0.14,-0.01 0.05,-0.01 0.09,-0.01 0.12,-0.01 0.03,0 0.05,0 0.05,0.01 0.01,0.01 0.01,0.01 0.01,0.02 0,0.02 0,0.03 -0.02,0.03 0,0 -0.01,0 -0.02,-0.01 -0.01,0 -0.02,0 -0.04,0 -0.04,0 -0.07,0.01 -0.09,0.01zm0.42 0.22c0,0.01 -0.01,0.02 -0.03,0.05 -0.01,0.02 -0.02,0.04 -0.03,0.04 0,0 -0.01,0 -0.01,0 -0.01,0 -0.02,0 -0.03,-0.01 0,0 -0.01,-0.01 -0.01,-0.02 0,0 0.02,-0.04 0.07,-0.1 0.02,-0.04 0.04,-0.07 0.06,-0.11 0.04,-0.07 0.06,-0.11 0.07,-0.12 0.01,-0.01 0.02,-0.02 0.03,-0.02 0.01,0 0.02,0 0.03,0.01 0,0 0,0.01 0,0.02 0,0.01 0,0.01 0,0.02 0.03,0.09 0.06,0.16 0.07,0.2 0.02,0.04 0.04,0.06 0.06,0.08 0,0.01 0.01,0.02 0.01,0.02 0,0 0,0.01 0,0.01 0,0.01 0,0.02 -0.01,0.02 0,0.01 -0.01,0.01 -0.02,0.01 -0.01,0 -0.03,0 -0.04,-0.02 -0.01,-0.01 -0.02,-0.03 -0.04,-0.06 -0.01,-0.03 -0.01,-0.04 -0.01,-0.04 0,0 0,0 -0.01,0 0,0 -0.03,0 -0.06,0 -0.03,0.01 -0.05,0.02 -0.07,0.02 -0.01,0.01 -0.01,0.01 -0.02,0.01 0,0 -0.01,-0.01 -0.01,-0.01zm0.15 -0.08c-0.01,-0.01 -0.02,-0.04 -0.04,-0.1 0,-0.01 0,-0.01 0,-0.01l-0.08 0.13c0.01,0 0.03,0 0.04,0 0,0 0.02,-0.01 0.05,-0.01 0.01,0 0.02,-0.01 0.03,-0.01zm0.63 -0.11c0,-0.02 0,-0.03 -0.01,-0.03 -0.01,-0.01 -0.02,-0.01 -0.04,-0.01 -0.03,0 -0.05,0 -0.08,0.02 -0.02,0.01 -0.03,0.03 -0.03,0.04 0,0.01 0,0.02 0.01,0.03 0.01,0.01 0.03,0.02 0.07,0.03 0.04,0.01 0.07,0.02 0.09,0.04 0.02,0.01 0.03,0.03 0.03,0.05 0,0.03 -0.02,0.06 -0.07,0.09 -0.05,0.02 -0.11,0.04 -0.16,0.04 -0.02,0 -0.03,-0.01 -0.04,-0.01 -0.01,-0.01 -0.02,-0.02 -0.02,-0.03 0,-0.01 0,-0.02 0.01,-0.02 0,-0.01 0.01,-0.01 0.02,-0.01 0,0 0,0 0.01,0 0.02,0 0.03,0.01 0.05,0.01 0.02,0 0.05,-0.01 0.09,-0.02 0.03,-0.02 0.05,-0.03 0.05,-0.05 0,0 -0.01,-0.01 -0.02,-0.01 0,-0.01 -0.02,-0.02 -0.05,-0.03 -0.03,-0.01 -0.06,-0.02 -0.08,-0.02 -0.02,-0.01 -0.03,-0.02 -0.04,-0.04 -0.01,-0.01 -0.02,-0.02 -0.02,-0.04 0,-0.03 0.02,-0.06 0.06,-0.09 0.04,-0.03 0.08,-0.04 0.13,-0.04 0.03,0 0.05,0.01 0.07,0.02 0.01,0.01 0.02,0.02 0.02,0.04 0,0.03 -0.01,0.04 -0.05,0.04zm0.38 0.19c0,0.01 -0.01,0.02 -0.03,0.05 -0.01,0.02 -0.02,0.04 -0.03,0.04 0,0 -0.01,0 -0.01,0 -0.01,0 -0.01,0 -0.02,-0.01 -0.01,0 -0.02,-0.01 -0.02,-0.02 0,0 0.03,-0.04 0.07,-0.1 0.02,-0.04 0.04,-0.07 0.06,-0.11 0.04,-0.07 0.06,-0.11 0.07,-0.12 0.01,-0.01 0.02,-0.02 0.03,-0.02 0.01,0 0.02,0 0.03,0.01 0,0 0,0.01 0,0.02 0,0.01 0,0.01 0,0.02 0.03,0.09 0.06,0.16 0.08,0.2 0.01,0.04 0.03,0.06 0.05,0.08 0.01,0.01 0.01,0.02 0.01,0.02 0.01,0 0.01,0.01 0.01,0.01 0,0.01 -0.01,0.02 -0.01,0.02 -0.01,0.01 -0.02,0.01 -0.03,0.01 -0.01,0 -0.02,0 -0.04,-0.02 -0.01,-0.01 -0.02,-0.03 -0.03,-0.06 -0.02,-0.03 -0.02,-0.04 -0.02,-0.04 0,0 0,0 0,0 -0.01,0 -0.03,0 -0.06,0 -0.04,0.01 -0.06,0.02 -0.08,0.02 -0.01,0.01 -0.01,0.01 -0.01,0.01 -0.01,0 -0.01,-0.01 -0.02,-0.01zm0.15 -0.08c-0.01,-0.01 -0.02,-0.04 -0.04,-0.1 0,-0.01 0,-0.01 0,-0.01l-0.07 0.13c0.01,0 0.02,0 0.03,0 0.01,0 0.03,-0.01 0.06,-0.01 0,0 0.01,-0.01 0.02,-0.01zm0.44 -0.14l-0.01 -0.01c0,-0.01 0,-0.01 0,-0.02 0,-0.01 0,-0.01 0.01,-0.02 0.01,0 0.01,-0.01 0.02,-0.01 0,0 0.01,0 0.01,0 0.01,0 0.01,0 0.01,0 0.05,0 0.09,-0.01 0.11,-0.01 0.03,0 0.06,0.01 0.09,0.03 0.02,0.02 0.03,0.04 0.03,0.07 0,0.02 -0.01,0.04 -0.03,0.07 -0.03,0.02 -0.05,0.04 -0.09,0.05 0.06,0.05 0.11,0.08 0.14,0.1 0.01,0.01 0.01,0.02 0.01,0.03 0,0.01 0,0.01 -0.01,0.02 -0.01,0.01 -0.01,0.01 -0.02,0.01 -0.01,0 -0.02,-0.01 -0.03,-0.01 -0.02,-0.01 -0.03,-0.03 -0.06,-0.04 -0.02,-0.02 -0.03,-0.03 -0.04,-0.04 -0.03,-0.02 -0.05,-0.04 -0.07,-0.05 -0.01,0 -0.02,-0.01 -0.02,-0.03 0,-0.01 0,-0.01 0.01,-0.02 0.01,0 0.02,-0.01 0.03,-0.01 0,0 0,0 0.01,0 0,0 0,0.01 0,0.01 0.01,0 0.03,-0.01 0.06,-0.03 0.03,-0.02 0.05,-0.04 0.05,-0.06 0,-0.02 -0.01,-0.03 -0.02,-0.04 -0.01,0 -0.03,-0.01 -0.05,-0.01 -0.02,0 -0.04,0 -0.05,0.01 -0.02,0 -0.02,0 -0.03,0 0,0 0,0.01 0,0.01 0,0 -0.01,0.02 -0.01,0.05 -0.01,0.03 -0.01,0.07 -0.02,0.1 0,0.04 0,0.07 0,0.08 0,0.01 0,0.02 0,0.03 0,0.01 0,0.02 0,0.03 0,0 0,0.01 -0.01,0.02 -0.01,0 -0.02,0.01 -0.02,0.01 -0.03,0 -0.04,-0.02 -0.04,-0.05 0,-0.03 0,-0.07 0.01,-0.11 0.01,-0.05 0.01,-0.09 0.02,-0.13 0,0 0,-0.01 0,-0.01l0.01 -0.02zm0.64 0.05c0,0.02 0,0.03 0,0.04 0,0 0,0.02 -0.01,0.04 0,0.03 -0.01,0.06 -0.01,0.07 0,0.02 0.01,0.04 0.01,0.07 0,0.01 0,0.02 -0.01,0.03 -0.01,0.01 -0.02,0.01 -0.03,0.01 -0.01,0 -0.02,0 -0.02,-0.01 -0.01,-0.01 -0.01,-0.03 -0.01,-0.06 0,-0.01 0,-0.05 0.01,-0.11l0.02 -0.1c0,-0.02 0,-0.03 0,-0.04 0,-0.02 0.01,-0.03 0.01,-0.04 0,0 0.01,-0.01 0.01,-0.01 0.01,0 0.02,-0.01 0.02,-0.01 0.01,0 0.02,0.01 0.02,0.01 0.01,0.01 0.01,0.02 0.01,0.03l-0.02 0.08zm0.65 -0.03l-0.08 0.12c-0.04,0.05 -0.07,0.08 -0.09,0.08 -0.01,0 -0.02,-0.01 -0.03,-0.02 -0.01,-0.01 -0.02,-0.03 -0.02,-0.05 -0.01,-0.02 -0.02,-0.04 -0.02,-0.05 -0.01,-0.03 -0.01,-0.04 -0.02,-0.05l-0.01 0.07c0,0.02 -0.01,0.04 -0.01,0.06 -0.01,0.02 -0.01,0.04 -0.02,0.06 0,0.03 0,0.05 0,0.06 0,0 -0.01,0.01 -0.02,0.01 0,0.01 -0.01,0.01 -0.01,0.01 -0.01,0 -0.02,0 -0.03,-0.01 0,-0.01 -0.01,-0.02 -0.01,-0.02 0,-0.02 0.01,-0.04 0.01,-0.07 0.03,-0.1 0.05,-0.16 0.05,-0.19 0,-0.03 0.01,-0.05 0.01,-0.07 0,0 0,-0.01 0.01,-0.02 0.01,0 0.02,0 0.03,0 0.01,0 0.01,0 0.02,0.01 0.01,0.01 0.01,0.02 0.01,0.03l0 -0.01 0.04 0.1c0.01,0.04 0.02,0.07 0.03,0.08 0.02,-0.02 0.04,-0.06 0.08,-0.1 0.03,-0.05 0.06,-0.09 0.07,-0.1 0.02,-0.01 0.03,-0.02 0.03,-0.02 0.01,0 0.02,0 0.03,0.01 0.01,0.01 0.01,0.01 0.01,0.02 0,0 0,0.03 -0.01,0.07 0,0.04 -0.01,0.08 -0.01,0.12 0,0.04 0,0.06 0,0.07 0,0.01 0,0.02 0,0.03 0,0.01 0,0.01 0,0.02 0,0.02 0,0.03 -0.01,0.03 0,0.01 -0.01,0.01 -0.02,0.01 -0.03,0 -0.04,-0.01 -0.04,-0.05 0,-0.03 0.01,-0.07 0.01,-0.11 0.01,-0.05 0.01,-0.08 0.02,-0.11 0,-0.01 0,-0.01 0,-0.02z"/>
   <polygon class="fil0" points="1.57,2.86 3.22,2.86 3.22,2.62 1.57,2.62 "/>
  </g>
 </g>
</svg>
